<svg xmlns="http://www.w3.org/2000/svg" height="auto" width="100%" viewBox="0 0 37 16">
    <rect x="2" y="0" width="12" height="1" fill="rgb(0,0,0)"/>
    <rect x="18" y="0" width="3" height="1" fill="rgb(0,0,0)"/>
    <rect x="29" y="0" width="3" height="1" fill="rgb(0,0,0)"/>
    <rect x="34" y="0" width="3" height="1" fill="rgb(34,177,76)"/>
    <rect x="1" y="1" width="14" height="14" fill="rgb(255,255,162)"/>
    <rect x="1" y="1" width="1" height="1" fill="rgb(0,0,0)"/>
    <rect x="14" y="1" width="1" height="1" fill="rgb(0,0,0)"/>
    <rect x="17" y="1" width="1" height="2" fill="rgb(0,0,0)"/>
    <rect x="18" y="1" width="14" height="11" fill="rgb(255,174,201)"/>
    <rect x="19" y="12" width="11" height="1" fill="rgb(255,174,201)"/>
    <rect x="20" y="13" width="2" height="2" fill="rgb(255,174,201)"/>
    <rect x="28" y="13" width="2" height="2" fill="rgb(255,174,201)"/>
    <rect x="21" y="1" width="8" height="1" fill="rgb(0,0,0)"/>
    <rect x="32" y="1" width="1" height="2" fill="rgb(0,0,0)"/>
    <rect x="36" y="1" width="1" height="3" fill="rgb(34,177,76)"/>
    <rect x="0" y="2" width="1" height="12" fill="rgb(0,0,0)"/>
    <rect x="15" y="2" width="1" height="12" fill="rgb(0,0,0)"/>
    <rect x="34" y="2" width="3" height="1" fill="rgb(34,177,76)"/>
    <rect x="18" y="3" width="2" height="1" fill="rgb(0,0,0)"/>
    <rect x="30" y="3" width="2" height="1" fill="rgb(0,0,0)"/>
    <rect x="4" y="4" width="2" height="4" fill="rgb(0,0,0)"/>
    <rect x="10" y="4" width="2" height="4" fill="rgb(0,0,0)"/>
    <rect x="18" y="4" width="1" height="1" fill="rgb(0,0,0)"/>
    <rect x="20" y="4" width="2" height="2" fill="rgb(0,0,0)"/>
    <rect x="28" y="4" width="2" height="2" fill="rgb(0,0,0)"/>
    <rect x="31" y="4" width="1" height="1" fill="rgb(0,0,0)"/>
    <rect x="34" y="4" width="3" height="1" fill="rgb(34,177,76)"/>
    <rect x="17" y="5" width="1" height="1" fill="rgb(0,0,0)"/>
    <rect x="32" y="5" width="1" height="1" fill="rgb(0,0,0)"/>
    <rect x="17" y="6" width="1" height="1" fill="rgb(0,0,0)"/>
    <rect x="22" y="6" width="6" height="1" fill="rgb(0,0,0)"/>
    <rect x="32" y="6" width="1" height="1" fill="rgb(0,0,0)"/>
    <rect x="34" y="6" width="3" height="1" fill="rgb(0,162,232)"/>
    <rect x="17" y="7" width="1" height="1" fill="rgb(0,0,0)"/>
    <rect x="21" y="7" width="1" height="3" fill="rgb(0,0,0)"/>
    <rect x="28" y="7" width="1" height="3" fill="rgb(0,0,0)"/>
    <rect x="32" y="7" width="1" height="1" fill="rgb(0,0,0)"/>
    <rect x="36" y="7" width="1" height="1" fill="rgb(0,162,232)"/>
    <rect x="17" y="8" width="1" height="1" fill="rgb(0,0,0)"/>
    <rect x="23" y="8" width="1" height="1" fill="rgb(0,0,0)"/>
    <rect x="26" y="8" width="1" height="1" fill="rgb(0,0,0)"/>
    <rect x="32" y="8" width="1" height="1" fill="rgb(0,0,0)"/>
    <rect x="35" y="8" width="1" height="1" fill="rgb(0,162,232)"/>
    <rect x="17" y="9" width="1" height="1" fill="rgb(0,0,0)"/>
    <rect x="32" y="9" width="1" height="1" fill="rgb(0,0,0)"/>
    <rect x="34" y="9" width="1" height="1" fill="rgb(0,162,232)"/>
    <rect x="5" y="10" width="6" height="1" fill="rgb(0,0,0)"/>
    <rect x="18" y="10" width="1" height="1" fill="rgb(0,0,0)"/>
    <rect x="22" y="10" width="6" height="1" fill="rgb(0,0,0)"/>
    <rect x="31" y="10" width="1" height="2" fill="rgb(0,0,0)"/>
    <rect x="6" y="11" width="4" height="1" fill="rgb(0,0,0)"/>
    <rect x="18" y="11" width="1" height="1" fill="rgb(0,0,0)"/>
    <rect x="34" y="11" width="3" height="1" fill="rgb(163,73,164)"/>
    <rect x="7" y="12" width="2" height="1" fill="rgb(0,0,0)"/>
    <rect x="19" y="12" width="1" height="3" fill="rgb(0,0,0)"/>
    <rect x="21" y="12" width="1" height="1" fill="rgb(0,0,0)"/>
    <rect x="28" y="12" width="1" height="1" fill="rgb(0,0,0)"/>
    <rect x="30" y="12" width="1" height="3" fill="rgb(0,0,0)"/>
    <rect x="34" y="12" width="1" height="1" fill="rgb(163,73,164)"/>
    <rect x="22" y="13" width="6" height="1" fill="rgb(0,0,0)"/>
    <rect x="34" y="13" width="3" height="1" fill="rgb(163,73,164)"/>
    <rect x="1" y="14" width="1" height="1" fill="rgb(0,0,0)"/>
    <rect x="14" y="14" width="1" height="1" fill="rgb(0,0,0)"/>
    <rect x="22" y="14" width="1" height="1" fill="rgb(0,0,0)"/>
    <rect x="27" y="14" width="1" height="1" fill="rgb(0,0,0)"/>
    <rect x="36" y="14" width="1" height="1" fill="rgb(163,73,164)"/>
    <rect x="2" y="15" width="12" height="1" fill="rgb(0,0,0)"/>
    <rect x="19" y="15" width="4" height="1" fill="rgb(0,0,0)"/>
    <rect x="27" y="15" width="4" height="1" fill="rgb(0,0,0)"/>
    <rect x="34" y="15" width="3" height="1" fill="rgb(163,73,164)"/>
</svg>
